<?xml version="1.0" standalone="no"?>
<!DOCTYPE svg PUBLIC "-//W3C//DTD SVG 20010904//EN"
 "http://www.w3.org/TR/2001/REC-SVG-20010904/DTD/svg10.dtd">
<svg version="1.0" xmlns="http://www.w3.org/2000/svg"
 width="1600.000000pt" height="1131.000000pt" viewBox="0 0 1600.000000 1131.000000"
 preserveAspectRatio="xMidYMid meet">
<metadata>
Created by potrace 1.16, written by Peter Selinger 2001-2019
</metadata>
<g transform="translate(0.000000,1131.000000) scale(0.100000,-0.100000)"
fill="#000000" stroke="none">
<path d="M7575 8984 c-437 -17 -775 -41 -1120 -80 -1072 -122 -1993 -368
-2740 -733 -477 -233 -799 -451 -1109 -751 -253 -246 -426 -477 -561 -753
-161 -326 -224 -585 -232 -948 -8 -352 31 -591 148 -890 127 -325 323 -615
608 -899 938 -935 2617 -1496 4786 -1600 271 -13 1029 -13 1300 0 1777 85
3207 470 4215 1135 473 312 846 707 1065 1128 179 343 259 670 259 1062 0 382
-71 683 -240 1025 -241 487 -664 919 -1239 1267 -970 586 -2292 928 -3950
1023 -181 11 -1023 20 -1190 14z m1170 -324 c1738 -95 3117 -483 4020 -1129
753 -538 1130 -1246 1075 -2015 -20 -274 -82 -501 -205 -751 -115 -234 -237
-405 -430 -604 -747 -768 -2051 -1275 -3765 -1460 -519 -56 -959 -75 -1605
-68 -495 5 -621 11 -1000 42 -2202 185 -3834 925 -4427 2010 -183 335 -257
648 -245 1040 14 487 189 915 538 1320 567 658 1599 1159 2924 1419 609 119
1210 183 1985 210 172 6 941 -3 1135 -14z"/>
<path d="M7495 8379 c-1049 -37 -2019 -198 -2796 -465 -1260 -433 -2011 -1112
-2164 -1961 -9 -49 -19 -158 -22 -243 -22 -610 264 -1164 837 -1620 769 -612
2040 -1011 3615 -1134 523 -41 1427 -47 1925 -12 1263 89 2260 321 3065 716
864 423 1369 980 1507 1662 20 99 23 142 22 338 0 255 -13 338 -84 551 -369
1109 -1878 1891 -4080 2113 -558 57 -1217 77 -1825 55z m1175 -70 c2511 -119
4284 -929 4679 -2138 61 -185 76 -292 75 -526 0 -178 -4 -226 -23 -315 -138
-651 -614 -1181 -1430 -1594 -719 -364 -1675 -606 -2786 -705 -429 -39 -611
-46 -1180 -46 -662 0 -988 17 -1520 80 -1633 194 -2860 705 -3483 1450 -344
412 -489 913 -407 1410 122 741 735 1364 1765 1795 1088 456 2643 668 4310
589z"/>
<path d="M3570 5705 l0 -1045 310 0 310 0 0 415 0 415 330 0 330 0 0 -415 0
-415 310 0 310 0 0 1045 0 1045 -310 0 -310 0 0 -385 0 -385 -330 0 -330 0 0
385 0 385 -310 0 -310 0 0 -1045z"/>
<path d="M6090 6111 c0 -514 -3 -654 -14 -714 -35 -184 -122 -248 -312 -233
l-84 7 0 -255 c0 -234 1 -255 18 -260 46 -15 241 -24 330 -15 203 19 324 71
445 190 89 89 140 184 176 329 36 148 42 235 48 668 l6 422 193 0 194 0 0
-795 0 -795 300 0 300 0 0 1045 0 1045 -800 0 -800 0 0 -639z"/>
<path d="M8206 6723 c-3 -16 -42 -291 -86 -613 -45 -322 -108 -778 -140 -1014
-33 -235 -60 -430 -60 -432 0 -2 131 -4 290 -4 160 0 290 2 290 4 0 19 142
1091 145 1094 2 2 13 -29 25 -70 12 -40 30 -100 40 -133 10 -33 41 -136 69
-230 27 -93 79 -269 115 -390 36 -121 68 -232 72 -247 l6 -28 209 0 208 0 30
98 c16 53 89 297 161 542 72 245 133 447 136 449 2 2 6 2 7 0 2 -2 35 -245 72
-539 37 -294 71 -538 75 -543 3 -4 134 -6 291 -5 l285 3 -101 730 c-56 402
-121 871 -145 1043 l-43 312 -311 0 -311 0 -98 -347 c-55 -192 -133 -468 -175
-616 -41 -147 -79 -264 -82 -260 -4 5 -12 26 -17 48 -11 43 -281 996 -314
1108 l-20 67 -309 0 -308 0 -6 -27z"/>
<path d="M10670 5705 l0 -1045 315 0 315 0 2 417 3 417 230 -349 c126 -191
249 -379 273 -416 l44 -69 375 0 375 0 -30 38 c-85 109 -754 985 -764 1001
-11 19 30 76 665 909 l108 142 -343 0 -343 -1 -174 -247 c-96 -136 -229 -324
-295 -418 l-121 -171 -3 419 -2 418 -315 0 -315 0 0 -1045z"/>
</g>
</svg>
